<svg width="108" height="57" viewBox="0 0 108 57" fill="none" xmlns="http://www.w3.org/2000/svg">
<path d="M82.625 12.6913C83.6165 11.8708 84.7447 11.4605 86.0097 11.4605C87.2747 11.4605 87.9072 11.717 87.9072 12.2298C87.9072 12.4349 87.7533 12.7426 87.4456 13.1529C87.1721 13.7683 85.89 16.0931 83.5994 20.1274C77.6163 30.5892 74.6248 37.5637 74.6248 41.0509C74.6248 41.3244 74.6932 41.4612 74.83 41.4612C75.0351 41.4612 75.377 41.1193 75.8556 40.4355C77.2574 38.0081 79.0523 35.2217 81.2404 32.0764C83.4284 28.931 85.4969 26.1617 87.4456 23.7685C89.3944 21.3753 91.5996 19.1359 94.0612 17.0504C96.5227 14.9649 98.7621 13.6657 100.779 13.1529C104.13 12.6059 106.301 12.3324 107.292 12.3324C107.395 12.3665 107.446 12.452 107.446 12.5888C107.446 12.6913 107.258 12.8452 106.882 13.0503C103.019 15.2042 98.2151 19.3069 92.4714 25.3583C86.7618 31.3755 81.5993 37.5637 76.9839 43.9228C75.7531 46.0083 74.7958 47.3075 74.112 47.8203C73.4282 48.3331 72.6077 48.5895 71.6504 48.5895C69.8726 48.5895 68.9837 46.7092 68.9837 42.9484C68.9837 41.3073 69.3085 39.6321 69.9581 37.9227C72.3513 31.5294 74.5906 26.9481 76.6762 24.1788C77.8386 22.4693 78.4198 21.5291 78.4198 21.3582C78.4198 21.2556 78.2147 21.4608 77.8044 21.9736C69.2914 32.6747 63.2742 39.6834 59.7527 42.9997C57.3253 45.5297 54.5731 48.128 51.4961 50.7947C48.4191 53.4614 45.9575 55.2905 44.1113 56.282C43.5301 56.7607 42.9147 57 42.2652 57C41.6156 57 40.8292 56.7265 39.9061 56.1795C38.983 55.6324 38.5215 54.9999 38.5215 54.282C38.5215 53.9059 38.7266 53.564 39.1369 53.2563L47.5473 46.1792C48.0602 45.7348 48.3849 45.5126 48.5217 45.5126C48.6243 45.5126 48.6755 45.5809 48.6755 45.7177C48.6755 45.8203 48.6243 45.9741 48.5217 46.1792C48.4191 46.3844 48.2653 46.6066 48.0602 46.8459C47.8208 47.0852 47.5815 47.3075 47.3422 47.5126L46.4704 48.4357C45.4105 49.4955 44.8806 50.0768 44.8806 50.1793C44.8806 50.3161 44.9148 50.3845 44.9832 50.3845C45.0515 50.3845 45.2225 50.2819 45.496 50.0768C48.7781 47.8203 53.5133 43.5809 59.7014 37.3585C65.8896 31.102 71.2572 25.4267 75.8043 20.3325L82.625 12.6913Z" fill="black"/>
<path d="M33.231 19.512C33.231 18.9991 33.5729 18.5547 34.2566 18.1786L40.2568 15.8196C40.3935 15.7512 40.5816 15.717 40.8209 15.717C41.0944 15.717 41.3337 15.8367 41.5388 16.076C41.744 16.3153 41.9662 16.435 42.2055 16.435C42.4449 16.435 42.9406 16.3495 43.6927 16.1786C44.4791 15.9734 45.5218 15.7341 46.821 15.4606C48.1202 15.1529 49.5732 14.8623 51.1801 14.5888C54.9409 13.9392 58.8555 13.6144 62.9239 13.6144C67.7445 13.6144 71.1976 13.9734 73.2831 14.6914C74.1037 14.9991 74.7874 15.4264 75.3345 15.9734C75.9157 16.4863 76.2063 17.1188 76.2063 17.8709C76.2063 18.3154 75.8986 18.5376 75.2832 18.5376C66.736 18.7769 59.7444 19.3239 54.3084 20.1787C53.7613 20.247 53.4878 20.4351 53.4878 20.7428C53.4878 20.8453 53.4878 20.9479 53.4878 21.0505C53.522 21.1188 53.4024 21.3069 53.1288 21.6146L47.3338 27.8198C47.0945 28.0592 46.9749 28.2472 46.9749 28.384C46.9749 28.4865 47.0091 28.5378 47.0774 28.5378C47.18 28.5378 47.4022 28.5036 47.7441 28.4352C49.9664 28.2985 52.0177 28.2301 53.8981 28.2301C55.7785 28.2301 56.8554 28.3327 57.1289 28.5378C58.6332 29.666 59.5051 30.4011 59.7444 30.743C60.0179 31.0849 60.1546 31.3584 60.1546 31.5635C60.1546 32.008 59.7786 32.2815 59.0264 32.384C50.0006 33.273 45.1287 33.7174 44.4107 33.7174C43.6927 33.6832 43.2312 33.6661 43.0261 33.6661C42.479 33.6661 41.8636 34.0935 41.1799 34.9482L34.9233 43.2561C34.7524 43.5296 34.6669 43.7347 34.6669 43.8715C34.6669 43.974 34.7353 44.0253 34.872 44.0253C35.0088 44.0253 35.2139 43.9569 35.4874 43.8202C38.7012 43.3074 41.6927 43.0509 44.462 43.0509C47.2655 43.0509 49.351 43.1364 50.7185 43.3074C52.5989 43.3074 54.6161 44.692 56.77 47.4613C56.9409 47.7006 57.0264 47.9228 57.0264 48.128C57.0264 48.3331 56.77 48.4357 56.2571 48.4357C47.7441 48.4357 41.2653 48.6066 36.8208 48.9485C36.6499 48.9827 36.4276 48.9998 36.1541 48.9998C34.684 48.9998 33.6754 48.6579 33.1284 47.9741C33.0258 47.769 32.8549 47.6664 32.6156 47.6664C32.3763 47.6664 32.1711 47.7861 32.0002 48.0254C31.795 48.2647 31.6412 48.3844 31.5386 48.3844C31.4361 48.3844 31.2309 48.2818 30.9232 48.0767C30.6155 47.8716 30.3078 47.5126 30.0001 46.9997C29.6582 46.5211 29.4873 46.0083 29.4873 45.4613C29.4873 44.88 29.607 44.3501 29.8463 43.8715C30.0514 43.3928 30.342 42.7774 30.7181 42.0253C31.06 41.2731 31.8463 39.9911 33.0771 38.179C34.3421 36.3329 35.6584 34.7602 37.0259 33.461C37.1969 33.29 37.2823 33.1362 37.2823 32.9994C37.2823 32.8285 37.0943 32.743 36.7182 32.743C36.3763 32.743 36.0174 32.6234 35.6413 32.384C35.2994 32.1105 35.1285 31.7516 35.1285 31.3071C35.1285 30.8285 35.7268 30.4353 36.9234 30.1276L39.6927 29.4096C39.7268 29.4096 39.7439 29.4096 39.7439 29.4096C40.291 29.4096 40.838 29.0506 41.385 28.3327C45.3509 24.4693 47.7783 22.3155 48.6672 21.871C48.9749 21.6659 49.1288 21.512 49.1288 21.4095C49.1288 21.2727 49.0262 21.2043 48.8211 21.2043C48.6159 21.2043 48.445 21.2214 48.3082 21.2556C45.1287 21.7684 42.5987 22.0248 40.7183 22.0248C38.8379 22.0248 37.4704 21.9394 36.6157 21.7684C35.7609 21.5975 35.1285 21.3924 34.7182 21.153C33.8293 20.5718 33.3506 20.1103 33.2823 19.7684L33.231 19.512Z" fill="black"/>
<path d="M39.847 17.4606L39.1803 17.5632C32.958 18.4521 27.9151 19.3923 24.0518 20.3838C20.2227 21.3753 16.9576 21.871 14.2567 21.871C12.3763 21.871 11.0259 21.4949 10.2053 20.7428C9.48739 20.059 9.04293 19.3239 8.87199 18.5376C8.87199 18.1957 9.17969 17.7854 9.79508 17.3068C12.5302 15.6657 14.5473 14.8452 15.8465 14.8452C15.9833 14.8452 16.0516 14.8965 16.0516 14.999C16.0516 15.0674 16.0003 15.2042 15.8978 15.4093C15.8978 15.5119 15.9491 15.5632 16.0516 15.5632C16.9064 15.2897 17.8294 15.0161 18.8209 14.7426C19.8466 14.4691 22.0859 14.093 25.539 13.6144C29.0263 13.1016 32.4281 12.8452 35.7444 12.8452C39.0949 12.8452 41.1804 13.1529 42.0009 13.7683L45.4369 15.9221C45.813 16.1957 46.001 16.5034 46.001 16.8452C46.001 17.1529 45.7446 17.3923 45.2318 17.5632C44.7189 17.7341 44.0351 18.0077 43.1804 18.3837C42.3257 18.7256 40.5821 19.5633 37.9495 20.8966C35.3512 22.1958 32.7358 23.6317 30.1032 25.2044C27.5049 26.7429 24.3937 28.8113 20.7697 31.4097C17.1457 33.9738 13.7097 36.6918 10.4618 39.5637C9.67542 40.2133 9.28225 40.6064 9.28225 40.7432C9.28225 40.88 9.31644 40.9483 9.38482 40.9483C9.4532 40.9483 9.65833 40.9141 10.0002 40.8458C13.7952 39.5808 17.4363 38.9483 20.9235 38.9483C24.4108 38.9483 27.3852 39.7175 29.8468 41.256C32.3084 42.7603 33.5392 44.5723 33.5392 46.692C33.5392 46.8972 33.4537 46.9997 33.2828 46.9997L32.8725 46.8972C32.7358 46.5211 31.3169 46.1963 28.616 45.9228C25.9493 45.6835 23.4193 45.5638 21.0261 45.5638C13.1285 45.5638 7.36768 46.145 3.74367 47.3074C3.50435 47.41 3.23084 47.4613 2.92314 47.4613C2.17099 47.4613 1.58978 47.0852 1.17951 46.3331C0.393171 46.1621 0 45.6664 0 44.8459C0 42.8287 2.22227 40.0423 6.66681 36.4867C11.0772 32.8969 16.3251 29.4096 22.4107 26.0249C28.5305 22.6402 34.2572 19.9393 39.5906 17.9222C39.8983 17.7512 40.0522 17.6316 40.0522 17.5632C40.0522 17.4948 39.9838 17.4606 39.847 17.4606Z" fill="black"/>
<path d="M53.3418 8.63024V2.38956H55.9053V3.45674C56.2185 3.15515 57.1349 2.25037 59.0025 2.25037H59.0837C61.2528 2.25037 62.1228 3.47994 62.1228 4.68632V8.63024H59.5129V5.5447C59.5129 4.59352 58.9793 3.99033 57.8425 3.99033C56.6825 3.99033 55.9285 4.66312 55.9285 5.6839V8.63024H53.3418Z" fill="black"/>
<path d="M52.327 0V1.78636H49.7402V0H52.327ZM52.327 2.38955V8.63022H49.7402V2.38955H52.327Z" fill="black"/>
<path d="M40.7461 3.66549C39.4469 3.66549 38.867 4.05988 38.6698 4.72106H42.8457C42.6833 4.05988 42.0569 3.66549 40.7577 3.66549H40.7461ZM45.4208 6.43783C45.4208 7.28461 44.864 8.80418 41.1405 8.80418H40.4793C37.1502 8.80418 36.083 7.24981 36.083 5.61425V5.35905C36.083 3.75828 37.0342 2.21552 40.4097 2.21552H41.1173C44.7712 2.21552 45.4556 4.05988 45.4556 5.57945V6.00864H38.6234C38.7742 6.73942 39.4005 7.22661 40.8273 7.22661H40.8389C42.5557 7.22661 42.8341 6.58863 42.8689 6.42623H45.4208V6.43783Z" fill="black"/>
<path d="M28.493 5.46344V5.50984C28.493 6.28703 29.2122 7.13381 30.8013 7.13381H30.8593C32.5413 7.13381 32.9937 6.26383 32.9937 5.50984V5.46344C32.9937 4.65146 32.5413 3.85107 30.8593 3.85107H30.8013C29.189 3.85107 28.493 4.65146 28.493 5.46344ZM25.9062 2.3895H28.493V3.28269C28.7598 3.03909 29.769 2.23871 31.6597 2.23871H31.8685C34.6989 2.23871 35.6385 3.65388 35.6385 5.37064V5.59104C35.6385 7.22661 34.6525 8.78097 31.7873 8.78097H31.6017C29.7342 8.78097 28.7134 7.98059 28.493 7.7486V10.8109H25.9062V2.3895Z" fill="black"/>
<path d="M17.7238 10.811V8.95502H19.1854C19.429 8.95502 19.487 8.87383 19.487 8.75783C19.487 8.63023 19.3826 8.45623 19.197 8.09664L16.2158 2.38956H18.9998L21.0065 6.61187L22.9553 2.38956H25.5536L22.2825 9.04782C21.7025 10.231 21.0993 10.811 19.9857 10.811H17.7238Z" fill="black"/>
<path d="M10.5713 8.63022V2.04156H6.85938V0H17.0208V2.04156H13.2972V8.63022H10.5713Z" fill="black"/>
<path fill-rule="evenodd" clip-rule="evenodd" d="M76.6094 7.51351C76.6094 6.932 77.0239 6.4606 77.5352 6.4606H93.5829C94.0942 6.4606 94.5087 6.932 94.5087 7.51351C94.5087 8.09501 94.0942 8.56641 93.5829 8.56641H77.5352C77.0239 8.56641 76.6094 8.09501 76.6094 7.51351Z" fill="black"/>
<path fill-rule="evenodd" clip-rule="evenodd" d="M67.1328 7.51351C67.1328 6.932 67.4864 6.4606 67.9225 6.4606L71.6077 6.4606C72.0438 6.4606 72.3973 6.932 72.3973 7.51351C72.3973 8.09501 72.0438 8.56641 71.6077 8.56641L67.9225 8.56641C67.4864 8.56641 67.1328 8.09501 67.1328 7.51351Z" fill="black"/>
<path fill-rule="evenodd" clip-rule="evenodd" d="M98.7207 7.51351C98.7207 6.932 99.145 6.4606 99.6683 6.4606L104.091 6.4606C104.614 6.4606 105.038 6.932 105.038 7.51351C105.038 8.09501 104.614 8.56641 104.091 8.56641L99.6683 8.56641C99.145 8.56641 98.7207 8.09501 98.7207 7.51351Z" fill="black"/>
</svg>
